<svg xmlns="http://www.w3.org/2000/svg" viewBox="0 0 270.31 37.97"><defs><style>.cls-1{fill:#333;}</style></defs><g id="Ebene_2" data-name="Ebene 2"><path class="cls-1" d="M217.06,17.7a9.87,9.87,0,0,0,9.87,9.87h2.48a9.87,9.87,0,0,0,9.87-9.87V9.93a1.95,1.95,0,0,1,2-2h12.57a2,2,0,0,1,2,2V38h7.93V9.86a10,10,0,0,0-2.87-7,10,10,0,0,0-7-2.89H241.19a9.88,9.88,0,0,0-9.87,9.86v6.62a3.23,3.23,0,0,1-.92,2.24A3.16,3.16,0,0,1,225,16.48V9.86A9.87,9.87,0,0,0,215.15,0H202.47a10,10,0,0,0-7,2.89,9.94,9.94,0,0,0-2.88,7V38h7.94v-28a2,2,0,0,1,.58-1.4A2,2,0,0,1,202.52,8h12.56a2,2,0,0,1,2,2V17.7m-82.21,4.56L141,30h37.09a2,2,0,0,0,2-2V9.93a2,2,0,0,0-.57-1.4,2,2,0,0,0-1.4-.58H141.06l-6.21,7.76H119.42L113.23,8H76.15a2,2,0,0,0-2,2V28.05a2,2,0,0,0,2,2h37.08l6.19-7.76ZM11.49,30A2.53,2.53,0,0,1,9,27.61a2.5,2.5,0,0,1,.61-1.78A2.58,2.58,0,0,1,11.24,25L54,20.77A9.87,9.87,0,0,0,62.9,11V9.86A9.87,9.87,0,0,0,53,0H1.69V8H51.41a2.53,2.53,0,0,1,1.75.7,2.54,2.54,0,0,1,.17,3.49,2.54,2.54,0,0,1-1.67.87L8.9,17.21A9.85,9.85,0,0,0,0,27V28.1a10,10,0,0,0,2.89,7,10,10,0,0,0,7,2.89H61.21V30Zm115.65-4.68L117.06,38h-41a9.87,9.87,0,0,1-9.87-9.87V9.86A9.87,9.87,0,0,1,76.1,0h41l10.08,12.63L137.22,0h41a9.87,9.87,0,0,1,9.87,9.86V28.1A9.87,9.87,0,0,1,178.18,38h-41Z"/><path class="cls-1" d="M269.25,36.84h-.5l-.4-1.07h-.66v1.07h-.47v-2.6h1.13a1,1,0,0,1,.69.21.72.72,0,0,1,.23.55.69.69,0,0,1-.48.69Zm-1.56-1.44h.58a.57.57,0,0,0,.38-.11.38.38,0,0,0,.13-.3.32.32,0,0,0-.13-.27.5.5,0,0,0-.34-.11h-.62Z"/><path class="cls-1" d="M268.13,33.37A2.17,2.17,0,1,1,266,35.54,2.18,2.18,0,0,1,268.13,33.37Zm1.94,2.17a1.94,1.94,0,1,0-1.94,1.94A1.94,1.94,0,0,0,270.07,35.54Z"/></g></svg>